<?xml version="1.0" encoding="UTF-8"?>
<svg width="128" height="128" viewBox="0 0 128 128" fill="none" xmlns="http://www.w3.org/2000/svg">
  <circle cx="64" cy="64" r="60" fill="url(#gradient)" />
  <path d="M64 24C41.9086 24 24 41.9086 24 64C24 86.0914 41.9086 104 64 104C86.0914 104 104 86.0914 104 64C104 41.9086 86.0914 24 64 24ZM64 94C47.4315 94 34 80.5685 34 64C34 47.4315 47.4315 34 64 34C80.5685 34 94 47.4315 94 64C94 80.5685 80.5685 94 64 94Z" fill="white"/>
  <defs>
    <linearGradient id="gradient" x1="0" y1="0" x2="128" y2="128" gradientUnits="userSpaceOnUse">
      <stop offset="0%" style="stop-color:#7C3AED"/>
      <stop offset="100%" style="stop-color:#4F46E5"/>
    </linearGradient>
  </defs>
</svg> 